<svg width="42" height="42" viewBox="0 0 42 42" fill="none" xmlns="http://www.w3.org/2000/svg">
<path d="M15.6557 33.0355L16.4668 32.0066L15.6557 33.0355ZM20.9633 9.60895L20.0193 10.5175C20.2663 10.7741 20.6071 10.9191 20.9633 10.9191C21.3194 10.9191 21.6603 10.7741 21.9072 10.5175L20.9633 9.60895ZM26.2709 33.0355L27.082 34.0644L26.2709 33.0355ZM16.4668 32.0066C13.8191 29.9193 10.9239 27.881 8.62707 25.2947C6.37518 22.759 4.80433 19.8002 4.80433 15.9615H2.18396C2.18396 20.618 4.1239 24.1702 6.66779 27.0347C9.16676 29.8486 12.3523 32.0997 14.8446 34.0644L16.4668 32.0066ZM4.80433 15.9615C4.80433 12.2042 6.92747 9.05324 9.82558 7.72851C12.6411 6.44152 16.4242 6.78235 20.0193 10.5175L21.9072 8.70038C17.6415 4.26844 12.6901 3.538 8.73621 5.34531C4.86497 7.11487 2.18396 11.2238 2.18396 15.9615H4.80433ZM14.8446 34.0644C15.7394 34.7698 16.7 35.522 17.6735 36.0909C18.6466 36.6595 19.7572 37.1217 20.9633 37.1217V34.5014C20.4224 34.5014 19.7861 34.2904 18.9956 33.8285C18.2055 33.3668 17.3857 32.731 16.4668 32.0066L14.8446 34.0644ZM27.082 34.0644C29.5742 32.0997 32.7598 29.8486 35.2588 27.0347C37.8027 24.1702 39.7426 20.618 39.7426 15.9615H37.1222C37.1222 19.8002 35.5514 22.759 33.2995 25.2947C31.0027 27.881 28.1075 29.9193 25.4598 32.0066L27.082 34.0644ZM39.7426 15.9615C39.7426 11.2238 37.0616 7.11487 33.1903 5.34531C29.2365 3.538 24.285 4.26844 20.0193 8.70038L21.9072 10.5175C25.5023 6.78235 29.2855 6.44152 32.101 7.72851C34.9991 9.05324 37.1222 12.2042 37.1222 15.9615H39.7426ZM25.4598 32.0066C24.5408 32.731 23.7211 33.3668 22.931 33.8285C22.1404 34.2904 21.5041 34.5014 20.9633 34.5014V37.1217C22.1693 37.1217 23.2799 36.6595 24.253 36.0909C25.2265 35.522 26.1872 34.7698 27.082 34.0644L25.4598 32.0066Z" fill="black"/>
</svg>
