<svg width="35" height="35" viewBox="0 0 35 35" fill="none" xmlns="http://www.w3.org/2000/svg">
<g id="Linear / Video, Audio, Sound / Shuffle">
<path id="Vector" d="M2.91699 23.4808C2.1934 23.4808 1.60681 24.0674 1.60681 24.791C1.60681 25.5146 2.1934 26.1012 2.91699 26.1012V23.4808ZM15.6742 20.5429L14.5507 19.8688H14.5507L15.6742 20.5429ZM19.3264 14.4558L20.4499 15.1299V15.1299L19.3264 14.4558ZM32.0837 10.2077L33.0101 11.1341C33.5218 10.6225 33.5218 9.7929 33.0101 9.28124L32.0837 10.2077ZM28.2405 12.1979C27.7289 12.7096 27.7289 13.5391 28.2405 14.0508C28.7522 14.5624 29.5818 14.5624 30.0934 14.0508L28.2405 12.1979ZM30.0934 6.36457C29.5818 5.85292 28.7522 5.85292 28.2405 6.36457C27.7289 6.87623 27.7289 7.7058 28.2405 8.21746L30.0934 6.36457ZM22.1968 10.7756L21.5513 9.63544V9.63544L22.1968 10.7756ZM2.91699 26.1012H8.17116V23.4808H2.91699V26.1012ZM16.7977 21.2169L20.4499 15.1299L18.203 13.7818L14.5507 19.8688L16.7977 21.2169ZM26.8295 11.5179H32.0837V8.8975H26.8295V11.5179ZM31.1572 9.28124L28.2405 12.1979L30.0934 14.0508L33.0101 11.1341L31.1572 9.28124ZM33.0101 9.28124L30.0934 6.36457L28.2405 8.21746L31.1572 11.1341L33.0101 9.28124ZM20.4499 15.1299C21.0853 14.071 21.5153 13.357 21.9054 12.8302C22.2785 12.3261 22.5559 12.0779 22.8424 11.9157L21.5513 9.63544C20.8348 10.0411 20.2995 10.5955 19.7994 11.2709C19.3162 11.9236 18.8125 12.7658 18.203 13.7818L20.4499 15.1299ZM26.8295 8.8975C25.6447 8.8975 24.6633 8.89607 23.8551 8.97463C23.0187 9.05593 22.2678 9.22977 21.5513 9.63544L22.8424 11.9157C23.1289 11.7535 23.4844 11.6434 24.1086 11.5827C24.7611 11.5193 25.5945 11.5179 26.8295 11.5179V8.8975ZM8.17116 26.1012C9.35596 26.1012 10.3373 26.1026 11.1455 26.0241C11.982 25.9428 12.7328 25.7689 13.4493 25.3633L12.1583 23.083C11.8718 23.2452 11.5162 23.3553 10.892 23.416C10.2396 23.4794 9.40613 23.4808 8.17116 23.4808V26.1012ZM14.5507 19.8688C13.9154 20.9277 13.4853 21.6417 13.0953 22.1685C12.7221 22.6726 12.4448 22.9208 12.1583 23.083L13.4493 25.3633C14.1658 24.9576 14.7012 24.4032 15.2013 23.7278C15.6844 23.0751 16.1881 22.2329 16.7977 21.2169L14.5507 19.8688Z" fill="black"/>
<path id="Vector_2" d="M2.91699 8.8988C2.1934 8.8988 1.60681 9.48539 1.60681 10.209C1.60681 10.9326 2.1934 11.5192 2.91699 11.5192V8.8988ZM32.0837 24.7923L33.0101 25.7188C33.5218 25.2071 33.5218 24.3775 33.0101 23.8659L32.0837 24.7923ZM30.0934 20.9492C29.5818 20.4376 28.7522 20.4376 28.2405 20.9492C27.7289 21.4609 27.7289 22.2904 28.2405 22.8021L30.0934 20.9492ZM28.2405 26.7825C27.7289 27.2942 27.7289 28.1238 28.2405 28.6354C28.7522 29.1471 29.5818 29.1471 30.0934 28.6354L28.2405 26.7825ZM23.5165 24.7117L23.7669 23.4257H23.7669L23.5165 24.7117ZM21.2488 21.2016C20.8765 20.5811 20.0717 20.3799 19.4512 20.7522C18.8308 21.1245 18.6296 21.9293 19.0019 22.5497L21.2488 21.2016ZM21.1 23.3435L22.074 22.4672L21.1 23.3435ZM11.4841 10.2896L11.7344 9.00353V9.00353L11.4841 10.2896ZM13.7519 13.7997C14.1241 14.4202 14.9289 14.6214 15.5494 14.2491C16.1699 13.8768 16.3711 13.072 15.9988 12.4516L13.7519 13.7997ZM13.9006 11.6578L12.9266 12.5341L13.9006 11.6578ZM2.91699 11.5192H9.72394V8.8988H2.91699V11.5192ZM25.2767 26.1025H32.0837V23.4821H25.2767V26.1025ZM33.0101 23.8659L30.0934 20.9492L28.2405 22.8021L31.1572 25.7188L33.0101 23.8659ZM31.1572 23.8659L28.2405 26.7825L30.0934 28.6354L33.0101 25.7188L31.1572 23.8659ZM25.2767 23.4821C24.3263 23.4821 24.0275 23.4764 23.7669 23.4257L23.2662 25.9978C23.8337 26.1082 24.4323 26.1025 25.2767 26.1025V23.4821ZM19.0019 22.5497C19.4363 23.2738 19.7394 23.7901 20.126 24.2198L22.074 22.4672C21.8964 22.2698 21.7378 22.0165 21.2488 21.2016L19.0019 22.5497ZM23.7669 23.4257C23.1135 23.2985 22.5192 22.9621 22.074 22.4672L20.126 24.2198C20.9519 25.1378 22.0542 25.7619 23.2662 25.9978L23.7669 23.4257ZM9.72394 11.5192C10.6743 11.5192 10.9731 11.5249 11.2338 11.5756L11.7344 9.00353C11.167 8.89308 10.5684 8.8988 9.72394 8.8988V11.5192ZM15.9988 12.4516C15.5643 11.7275 15.2613 11.2112 14.8746 10.7815L12.9266 12.5341C13.1042 12.7315 13.2629 12.9848 13.7519 13.7997L15.9988 12.4516ZM11.2338 11.5756C11.8872 11.7028 12.4814 12.0392 12.9266 12.5341L14.8746 10.7815C14.0487 9.86353 12.9465 9.23944 11.7344 9.00353L11.2338 11.5756Z" fill="black"/>
</g>
</svg>
