<svg width="33" height="33" viewBox="0 0 33 33" fill="none" xmlns="http://www.w3.org/2000/svg">
<path d="M5.05974 15.5833H3.74955H5.05974ZM5.05974 17.875L4.13695 18.8051C4.64776 19.3119 5.47172 19.3119 5.98254 18.8051L5.05974 17.875ZM8.29228 16.5134C8.80594 16.0038 8.8092 15.1742 8.29955 14.6605C7.78991 14.1469 6.96035 14.1436 6.44669 14.6533L8.29228 16.5134ZM3.67279 14.6533C3.15913 14.1436 2.32957 14.1469 1.81993 14.6605C1.31028 15.1742 1.31354 16.0038 1.82721 16.5134L3.67279 14.6533ZM25.3588 10.3112C25.7377 10.9276 26.5447 11.1201 27.1611 10.7411C27.7775 10.3622 27.97 9.55525 27.591 8.93883L25.3588 10.3112ZM16.6084 2.81481C9.5164 2.81481 3.74955 8.52179 3.74955 15.5833H6.36993C6.36993 9.98835 10.9441 5.43519 16.6084 5.43519V2.81481ZM3.74955 15.5833L3.74956 17.875L6.36993 17.875L6.36993 15.5833L3.74955 15.5833ZM5.98254 18.8051L8.29228 16.5134L6.44669 14.6533L4.13695 16.9449L5.98254 18.8051ZM5.98254 16.9449L3.67279 14.6533L1.82721 16.5134L4.13695 18.8051L5.98254 16.9449ZM27.591 8.93883C25.3333 5.26634 21.2577 2.81481 16.6084 2.81481V5.43519C20.3163 5.43519 23.5613 7.3874 25.3588 10.3112L27.591 8.93883Z" fill="black"/>
<path d="M27.9316 15.125L28.8526 14.1932C28.3422 13.6887 27.521 13.6887 27.0106 14.1932L27.9316 15.125ZM24.692 16.4848C24.1774 16.9935 24.1725 17.823 24.6812 18.3377C25.1899 18.8523 26.0194 18.8572 26.5341 18.3485L24.692 16.4848ZM29.3292 18.3485C29.8438 18.8572 30.6733 18.8523 31.182 18.3377C31.6907 17.823 31.6858 16.9935 31.1712 16.4848L29.3292 18.3485ZM7.54953 22.6869C7.16952 22.0712 6.36228 21.88 5.7465 22.26C5.13072 22.64 4.9396 23.4473 5.31961 24.0631L7.54953 22.6869ZM16.3388 30.1852C23.4504 30.1852 29.2418 24.4829 29.2418 17.4167H26.6214C26.6214 23.007 22.0322 27.5648 16.3388 27.5648V30.1852ZM29.2418 17.4167V15.125H26.6214V17.4167H29.2418ZM27.0106 14.1932L24.692 16.4848L26.5341 18.3485L28.8526 16.0568L27.0106 14.1932ZM27.0106 16.0568L29.3292 18.3485L31.1712 16.4848L28.8526 14.1932L27.0106 16.0568ZM5.31961 24.0631C7.58617 27.7359 11.6758 30.1852 16.3388 30.1852V27.5648C12.6125 27.5648 9.35368 25.6104 7.54953 22.6869L5.31961 24.0631Z" fill="black"/>
</svg>
