<svg width="38" height="34" viewBox="0 0 38 34" fill="none" xmlns="http://www.w3.org/2000/svg">
<path d="M13.6557 29.0355L12.8446 30.0644L12.8446 30.0644L13.6557 29.0355ZM18.9633 5.60895L18.0193 6.51752C18.2663 6.77414 18.6071 6.91914 18.9633 6.91914C19.3194 6.91914 19.6603 6.77414 19.9072 6.51752L18.9633 5.60895ZM24.2709 29.0355L23.4598 28.0066L24.2709 29.0355ZM14.4668 28.0066C11.8191 25.9193 8.92388 23.881 6.62707 21.2947C4.37518 18.759 2.80433 15.8002 2.80433 11.9615H0.183955C0.183955 16.618 2.1239 20.1702 4.66779 23.0347C7.16676 25.8486 10.3523 28.0997 12.8446 30.0644L14.4668 28.0066ZM2.80433 11.9615C2.80433 8.20416 4.92747 5.05324 7.82558 3.72851C10.6411 2.44152 14.4242 2.78235 18.0193 6.51752L19.9072 4.70038C15.6415 0.268444 10.6901 -0.462001 6.73621 1.34531C2.86497 3.11487 0.183955 7.2238 0.183955 11.9615H2.80433ZM12.8446 30.0644C13.7394 30.7698 14.7 31.522 15.6735 32.0909C16.6466 32.6595 17.7572 33.1217 18.9633 33.1217V30.5014C18.4224 30.5014 17.7861 30.2904 16.9956 29.8285C16.2055 29.3668 15.3857 28.731 14.4668 28.0066L12.8446 30.0644ZM25.082 30.0644C27.5742 28.0997 30.7598 25.8486 33.2588 23.0347C35.8027 20.1702 37.7426 16.618 37.7426 11.9615H35.1222C35.1222 15.8002 33.5514 18.759 31.2995 21.2947C29.0027 23.881 26.1075 25.9193 23.4598 28.0066L25.082 30.0644ZM37.7426 11.9615C37.7426 7.2238 35.0616 3.11487 31.1903 1.34531C27.2365 -0.462001 22.285 0.268444 18.0193 4.70038L19.9072 6.51752C23.5023 2.78235 27.2855 2.44152 30.101 3.72851C32.9991 5.05324 35.1222 8.20416 35.1222 11.9615H37.7426ZM23.4598 28.0066C22.5408 28.731 21.7211 29.3668 20.931 29.8285C20.1404 30.2904 19.5041 30.5014 18.9633 30.5014V33.1217C20.1693 33.1217 21.2799 32.6595 22.253 32.0909C23.2265 31.522 24.1872 30.7698 25.082 30.0644L23.4598 28.0066Z" fill="black"/>
</svg>
