<svg width="30" height="28" viewBox="0 0 30 28" fill="none" xmlns="http://www.w3.org/2000/svg">
<path fill-rule="evenodd" clip-rule="evenodd" d="M15 3.2C11.8174 3.2 8.76515 4.33785 6.51472 6.36325C4.26428 8.38864 3 11.1357 3 14V16.7H6C6.79565 16.7 7.55871 16.9845 8.12132 17.4908C8.68393 17.9972 9 18.6839 9 19.4V23.45C9 24.5241 8.52589 25.5543 7.68198 26.3138C6.83807 27.0733 5.69347 27.5 4.5 27.5C3.30653 27.5 2.16193 27.0733 1.31802 26.3138C0.474106 25.5543 0 24.5241 0 23.45V14C0 6.54395 6.7155 0.5 15 0.5C23.2845 0.5 30 6.54395 30 14V23.45C30 24.5241 29.5259 25.5543 28.682 26.3138C27.8381 27.0733 26.6935 27.5 25.5 27.5C24.3065 27.5 23.1619 27.0733 22.318 26.3138C21.4741 25.5543 21 24.5241 21 23.45V19.4C21 18.6839 21.3161 17.9972 21.8787 17.4908C22.4413 16.9845 23.2043 16.7 24 16.7H27V14C27 11.1357 25.7357 8.38864 23.4853 6.36325C21.2348 4.33785 18.1826 3.2 15 3.2Z" fill="white"/>
</svg>
