<svg width="36" height="34" viewBox="0 0 36 34" fill="none" xmlns="http://www.w3.org/2000/svg">
<g id="iconamoon:headphone-fill">
<path id="Vector" fill-rule="evenodd" clip-rule="evenodd" d="M18 6.2C14.8174 6.2 11.7652 7.33785 9.51472 9.36325C7.26428 11.3886 6 14.1357 6 17V19.7H9C9.79565 19.7 10.5587 19.9845 11.1213 20.4908C11.6839 20.9972 12 21.6839 12 22.4V26.45C12 27.5241 11.5259 28.5543 10.682 29.3138C9.83807 30.0733 8.69347 30.5 7.5 30.5C6.30653 30.5 5.16193 30.0733 4.31802 29.3138C3.47411 28.5543 3 27.5241 3 26.45V17C3 9.54395 9.7155 3.5 18 3.5C26.2845 3.5 33 9.54395 33 17V26.45C33 27.5241 32.5259 28.5543 31.682 29.3138C30.8381 30.0733 29.6935 30.5 28.5 30.5C27.3065 30.5 26.1619 30.0733 25.318 29.3138C24.4741 28.5543 24 27.5241 24 26.45V22.4C24 21.6839 24.3161 20.9972 24.8787 20.4908C25.4413 19.9845 26.2043 19.7 27 19.7H30V17C30 14.1357 28.7357 11.3886 26.4853 9.36325C24.2348 7.33785 21.1826 6.2 18 6.2Z" fill="#3E3E3E"/>
</g>
</svg>
