<svg width="31" height="29" viewBox="0 0 31 29" fill="none" xmlns="http://www.w3.org/2000/svg">
<path d="M4.05974 13.5833L2.74955 13.5833L2.74955 13.5833L4.05974 13.5833ZM4.05974 15.875L3.13695 16.8051C3.64776 17.3119 4.47172 17.3119 4.98254 16.8051L4.05974 15.875ZM7.29228 14.5134C7.80594 14.0038 7.8092 13.1742 7.29955 12.6605C6.78991 12.1469 5.96035 12.1436 5.44669 12.6533L7.29228 14.5134ZM2.67279 12.6533C2.15913 12.1436 1.32957 12.1469 0.819927 12.6605C0.310282 13.1742 0.31354 14.0038 0.827205 14.5134L2.67279 12.6533ZM24.3588 8.31117C24.7377 8.92759 25.5447 9.12009 26.1611 8.74113C26.7775 8.36217 26.97 7.55525 26.591 6.93883L24.3588 8.31117ZM26.9316 13.125L27.8526 12.1932C27.3422 11.6887 26.521 11.6887 26.0106 12.1932L26.9316 13.125ZM23.692 14.4848C23.1774 14.9935 23.1725 15.823 23.6812 16.3377C24.1899 16.8523 25.0194 16.8572 25.5341 16.3485L23.692 14.4848ZM28.3292 16.3485C28.8438 16.8572 29.6733 16.8523 30.182 16.3377C30.6907 15.823 30.6858 14.9935 30.1712 14.4848L28.3292 16.3485ZM6.54953 20.6869C6.16952 20.0712 5.36228 19.88 4.7465 20.26C4.13072 20.64 3.9396 21.4473 4.31961 22.0631L6.54953 20.6869ZM15.6084 0.814815C8.5164 0.814815 2.74955 6.52179 2.74955 13.5833H5.36993C5.36993 7.98835 9.94414 3.43519 15.6084 3.43519V0.814815ZM2.74955 13.5833L2.74956 15.875L5.36993 15.875L5.36993 13.5833L2.74955 13.5833ZM4.98254 16.8051L7.29228 14.5134L5.44669 12.6533L3.13695 14.9449L4.98254 16.8051ZM4.98254 14.9449L2.67279 12.6533L0.827205 14.5134L3.13695 16.8051L4.98254 14.9449ZM26.591 6.93883C24.3333 3.26634 20.2577 0.814815 15.6084 0.814815V3.43519C19.3163 3.43519 22.5613 5.3874 24.3588 8.31117L26.591 6.93883ZM15.3388 28.1852C22.4504 28.1852 28.2418 22.4829 28.2418 15.4167H25.6214C25.6214 21.007 21.0322 25.5648 15.3388 25.5648V28.1852ZM28.2418 15.4167V13.125H25.6214V15.4167H28.2418ZM26.0106 12.1932L23.692 14.4848L25.5341 16.3485L27.8526 14.0568L26.0106 12.1932ZM26.0106 14.0568L28.3292 16.3485L30.1712 14.4848L27.8526 12.1932L26.0106 14.0568ZM4.31961 22.0631C6.58617 25.7359 10.6758 28.1852 15.3388 28.1852V25.5648C11.6125 25.5648 8.35368 23.6104 6.54953 20.6869L4.31961 22.0631Z" fill="black"/>
</svg>
