<svg width="619" height="666" viewBox="0 0 619 666" fill="none" xmlns="http://www.w3.org/2000/svg">
<g filter="url(#filter0_d_852_422)">
<g clip-path="url(#clip0_852_422)">
<rect x="15" y="11" width="589" height="636" rx="50" fill="white"/>
<g filter="url(#filter1_f_852_422)">
<path d="M631.497 611.726C497.524 327.671 251.062 162.417 501.068 44.5025C751.075 -73.4121 1062.35 61.2715 1196.33 345.327C1330.3 629.382 1236.24 955.243 986.229 1073.16C736.222 1191.07 765.47 895.781 631.497 611.726Z" fill="#79CDFF"/>
</g>
<g filter="url(#filter2_f_852_422)">
<ellipse cx="309.504" cy="148.122" rx="158.761" ry="169.811" transform="rotate(81.8925 309.504 148.122)" fill="#0066F4" fill-opacity="0.39"/>
</g>
<g filter="url(#filter3_f_852_422)">
<path d="M490.51 443.869C211.877 483.562 34.707 857.647 94.7896 1279.41C154.872 1701.18 309.067 1165.81 587.7 1126.12C866.333 1086.43 1163.89 1557.44 1103.81 1135.67C1043.73 713.908 769.143 404.177 490.51 443.869Z" fill="#FF7DA6"/>
</g>
</g>
</g>
<rect x="30" y="160" width="558" height="449" rx="50" fill="white"/>
<path d="M464.247 314.412H477.008V343.587H464.247V314.412ZM439.099 352.129H451.861V305.87H439.099V352.129ZM414.375 376.056H427.136V281.942H414.375V376.056ZM390.87 394.519H403.632V264.34H390.87V394.488V394.519ZM365.707 362.729H378.468V295.27H365.707V362.729ZM340.145 413.773H352.906V241.339H340.105V413.773H340.145ZM314.99 438.496H327.751V219.502H314.99V438.496ZM290.265 404.687H303.026V253.31H290.265V404.688V404.687ZM264.687 361.699H277.448V297.893H264.687V361.699ZM239.963 346.489H252.724V311.453H239.963V346.547V346.489ZM215.238 365.233H227.999V292.741H215.238V365.256V365.233ZM190.912 400.324H203.673V253.526H190.912V400.35L190.912 400.324ZM166.188 377.898H178.949V278.84H166.188V377.922V377.898ZM140.992 352.129H153.753V305.87H140.992V352.129Z" fill="#757575"/>
<rect x="230" y="245" width="14" height="167" rx="7" fill="url(#paint0_linear_852_422)"/>
<rect x="391" y="245" width="14" height="167" rx="7" fill="url(#paint1_linear_852_422)"/>
<circle cx="237" cy="239" r="19" fill="url(#paint2_linear_852_422)"/>
<path d="M241.824 245H240.032L239.088 242.344H234.912L233.984 245H232.192L236.128 234.216H237.888L241.824 245ZM237.76 238.568L237.024 236.008H236.992L236.256 238.568L235.456 240.856H238.56L237.76 238.568Z" fill="black"/>
<circle cx="398" cy="239" r="19" fill="url(#paint3_linear_852_422)"/>
<path d="M401.864 237.112C401.864 237.4 401.816 237.667 401.72 237.912C401.624 238.157 401.496 238.376 401.336 238.568C401.187 238.749 401.016 238.904 400.824 239.032C400.643 239.16 400.467 239.256 400.296 239.32C400.552 239.384 400.803 239.485 401.048 239.624C401.293 239.752 401.507 239.923 401.688 240.136C401.88 240.339 402.029 240.589 402.136 240.888C402.253 241.176 402.312 241.501 402.312 241.864C402.312 242.312 402.232 242.728 402.072 243.112C401.923 243.496 401.683 243.832 401.352 244.12C401.032 244.397 400.621 244.616 400.12 244.776C399.629 244.925 399.043 245 398.36 245H394.2V234.216H398.392C398.979 234.216 399.485 234.285 399.912 234.424C400.349 234.563 400.712 234.76 401 235.016C401.288 235.272 401.501 235.581 401.64 235.944C401.789 236.296 401.864 236.685 401.864 237.112ZM398.344 243.528C399.059 243.528 399.613 243.379 400.008 243.08C400.413 242.771 400.616 242.344 400.616 241.8C400.616 241.224 400.408 240.808 399.992 240.552C399.576 240.296 399.016 240.168 398.312 240.168H395.896V243.528H398.344ZM398.408 238.696C398.899 238.696 399.32 238.568 399.672 238.312C400.024 238.045 400.2 237.656 400.2 237.144C400.2 236.675 400.035 236.317 399.704 236.072C399.384 235.816 398.947 235.688 398.392 235.688H395.896V238.696H398.408Z" fill="black"/>
<path d="M59.9844 63V40.4531H64.0156V59.6094H74.2344V63H59.9844ZM86.1406 63.3906C83.9427 63.3906 82.0417 62.9167 80.4375 61.9688C78.8438 61.0208 77.6094 59.6771 76.7344 57.9375C75.8698 56.1875 75.4375 54.1198 75.4375 51.7344V51.7031C75.4375 49.3177 75.875 47.2552 76.75 45.5156C77.625 43.776 78.8594 42.4323 80.4531 41.4844C82.0573 40.5365 83.9531 40.0625 86.1406 40.0625C88.3281 40.0625 90.2188 40.5365 91.8125 41.4844C93.4167 42.4323 94.651 43.776 95.5156 45.5156C96.3906 47.2552 96.8281 49.3177 96.8281 51.7031V51.7344C96.8281 54.1198 96.3906 56.1875 95.5156 57.9375C94.651 59.6771 93.4219 61.0208 91.8281 61.9688C90.2344 62.9167 88.3385 63.3906 86.1406 63.3906ZM86.1406 59.9062C87.5052 59.9062 88.6771 59.5729 89.6562 58.9062C90.6458 58.2292 91.4062 57.2812 91.9375 56.0625C92.4688 54.8333 92.7344 53.3906 92.7344 51.7344V51.7031C92.7344 50.0365 92.4635 48.5938 91.9219 47.375C91.3906 46.1458 90.6302 45.2031 89.6406 44.5469C88.651 43.8802 87.4844 43.5469 86.1406 43.5469C84.8073 43.5469 83.6406 43.8802 82.6406 44.5469C81.651 45.2031 80.8854 46.1406 80.3438 47.3594C79.8125 48.5781 79.5469 50.026 79.5469 51.7031V51.7344C79.5469 53.401 79.8125 54.849 80.3438 56.0781C80.8854 57.2969 81.651 58.2396 82.6406 58.9062C83.6302 59.5729 84.7969 59.9062 86.1406 59.9062ZM109.984 63.3906C107.786 63.3906 105.885 62.9167 104.281 61.9688C102.688 61.0208 101.453 59.6771 100.578 57.9375C99.7135 56.1875 99.2812 54.1198 99.2812 51.7344V51.7031C99.2812 49.3177 99.7188 47.2552 100.594 45.5156C101.469 43.776 102.703 42.4323 104.297 41.4844C105.901 40.5365 107.797 40.0625 109.984 40.0625C112.172 40.0625 114.062 40.5365 115.656 41.4844C117.26 42.4323 118.495 43.776 119.359 45.5156C120.234 47.2552 120.672 49.3177 120.672 51.7031V51.7344C120.672 54.1198 120.234 56.1875 119.359 57.9375C118.495 59.6771 117.266 61.0208 115.672 61.9688C114.078 62.9167 112.182 63.3906 109.984 63.3906ZM109.984 59.9062C111.349 59.9062 112.521 59.5729 113.5 58.9062C114.49 58.2292 115.25 57.2812 115.781 56.0625C116.312 54.8333 116.578 53.3906 116.578 51.7344V51.7031C116.578 50.0365 116.307 48.5938 115.766 47.375C115.234 46.1458 114.474 45.2031 113.484 44.5469C112.495 43.8802 111.328 43.5469 109.984 43.5469C108.651 43.5469 107.484 43.8802 106.484 44.5469C105.495 45.2031 104.729 46.1406 104.188 47.3594C103.656 48.5781 103.391 50.026 103.391 51.7031V51.7344C103.391 53.401 103.656 54.849 104.188 56.0781C104.729 57.2969 105.495 58.2396 106.484 58.9062C107.474 59.5729 108.641 59.9062 109.984 59.9062ZM125.906 55.5469V52.2969H131.578C133.036 52.2969 134.161 51.9271 134.953 51.1875C135.755 50.4375 136.156 49.3854 136.156 48.0312V48C136.156 46.6354 135.755 45.5833 134.953 44.8438C134.161 44.1042 133.036 43.7344 131.578 43.7344H125.906V40.4531H132.578C134.099 40.4531 135.432 40.7656 136.578 41.3906C137.734 42.0156 138.635 42.8958 139.281 44.0312C139.927 45.1562 140.25 46.474 140.25 47.9844V48.0156C140.25 49.5156 139.927 50.8333 139.281 51.9688C138.635 53.0938 137.734 53.974 136.578 54.6094C135.432 55.2344 134.099 55.5469 132.578 55.5469H125.906ZM123.891 63V40.4531H127.922V63H123.891Z" fill="black"/>
<path d="M199.422 134L207.484 111.453H210.875V115.469H209.703L203.641 134H199.422ZM203.5 128.172L204.578 125.062H214.906L215.984 128.172H203.5ZM215.844 134L209.781 115.469V111.453H212.016L220.062 134H215.844Z" fill="black"/>
<path d="M402 134V130.875H408.516C409.995 130.875 411.12 130.578 411.891 129.984C412.672 129.391 413.062 128.526 413.062 127.391V127.359C413.062 126.599 412.88 125.964 412.516 125.453C412.161 124.932 411.63 124.547 410.922 124.297C410.214 124.036 409.333 123.906 408.281 123.906H402V120.984H407.641C409.099 120.984 410.208 120.698 410.969 120.125C411.729 119.552 412.109 118.729 412.109 117.656V117.625C412.109 116.656 411.776 115.906 411.109 115.375C410.453 114.844 409.526 114.578 408.328 114.578H402V111.453H409.344C410.719 111.453 411.906 111.688 412.906 112.156C413.917 112.615 414.698 113.266 415.25 114.109C415.812 114.953 416.094 115.948 416.094 117.094V117.125C416.094 117.938 415.906 118.698 415.531 119.406C415.167 120.104 414.661 120.693 414.016 121.172C413.37 121.641 412.646 121.932 411.844 122.047V122.125C412.896 122.219 413.823 122.51 414.625 123C415.427 123.49 416.052 124.13 416.5 124.922C416.948 125.703 417.172 126.594 417.172 127.594V127.625C417.172 128.938 416.859 130.073 416.234 131.031C415.609 131.979 414.719 132.714 413.562 133.234C412.417 133.745 411.042 134 409.438 134H402ZM399.984 134V111.453H404.016V134H399.984Z" fill="black"/>
<g clip-path="url(#clip1_852_422)">
<path d="M213.841 548C215.031 548 216.038 547.008 216.038 545.174V524.86C216.038 523.025 215.031 522.033 213.841 522.033C213.216 522.033 212.712 522.248 212.087 522.645L196.541 532.562C195.458 533.256 195 534.066 195 535.008C195 535.967 195.458 536.777 196.541 537.471L212.087 547.389C212.697 547.785 213.216 548 213.841 548ZM234.803 548C235.993 548 237 547.008 237 545.174V524.86C237 523.025 235.993 522.033 234.803 522.033C234.178 522.033 233.674 522.248 233.049 522.645L217.503 532.562C216.42 533.256 215.962 534.066 215.962 535.008C215.962 535.967 216.42 536.777 217.503 537.471L233.049 547.389C233.659 547.785 234.178 548 234.803 548Z" fill="#696969"/>
</g>
<path d="M326.249 530.146C330.139 532.261 330.139 537.737 326.249 539.853L302.76 552.626C298.979 554.682 294.333 552.006 294.333 547.772L294.333 522.226C294.333 517.993 298.979 515.317 302.76 517.373L326.249 530.146Z" fill="#696969"/>
<path d="M404.159 522.999C402.969 522.999 401.962 523.915 401.962 525.608V544.358C401.962 546.051 402.969 546.967 404.159 546.967C404.784 546.967 405.288 546.768 405.913 546.402L421.459 537.249C422.542 536.608 423 535.86 423 534.991C423 534.106 422.542 533.358 421.459 532.718L405.913 523.564C405.303 523.198 404.784 522.999 404.159 522.999ZM383.197 522.999C382.007 522.999 381 523.915 381 525.608V544.358C381 546.051 382.007 546.967 383.197 546.967C383.822 546.967 384.326 546.768 384.951 546.402L400.497 537.249C401.58 536.608 402.038 535.86 402.038 534.991C402.038 534.106 401.58 533.358 400.497 532.718L384.951 523.564C384.341 523.198 383.822 522.999 383.197 522.999Z" fill="#696969"/>
<path d="M111.917 541.481C111.193 541.481 110.607 542.067 110.607 542.791C110.607 543.515 111.193 544.101 111.917 544.101V541.481ZM124.674 538.543L123.551 537.869H123.551L124.674 538.543ZM128.326 532.456L129.45 533.13V533.13L128.326 532.456ZM141.084 528.208L142.01 529.134C142.522 528.622 142.522 527.793 142.01 527.281L141.084 528.208ZM137.241 530.198C136.729 530.71 136.729 531.539 137.241 532.051C137.752 532.562 138.582 532.562 139.093 532.051L137.241 530.198ZM139.093 524.365C138.582 523.853 137.752 523.853 137.241 524.365C136.729 524.876 136.729 525.706 137.241 526.217L139.093 524.365ZM131.197 528.776L130.551 527.635V527.635L131.197 528.776ZM111.917 544.101H117.171V541.481H111.917V544.101ZM125.798 539.217L129.45 533.13L127.203 531.782L123.551 537.869L125.798 539.217ZM135.829 529.518H141.084V526.897H135.829V529.518ZM140.157 527.281L137.241 530.198L139.093 532.051L142.01 529.134L140.157 527.281ZM142.01 527.281L139.093 524.365L137.241 526.217L140.157 529.134L142.01 527.281ZM129.45 533.13C130.085 532.071 130.515 531.357 130.905 530.83C131.279 530.326 131.556 530.078 131.842 529.916L130.551 527.635C129.835 528.041 129.299 528.596 128.799 529.271C128.316 529.924 127.813 530.766 127.203 531.782L129.45 533.13ZM135.829 526.897C134.645 526.897 133.663 526.896 132.855 526.975C132.019 527.056 131.268 527.23 130.551 527.635L131.842 529.916C132.129 529.753 132.484 529.643 133.109 529.583C133.761 529.519 134.595 529.518 135.829 529.518V526.897ZM117.171 544.101C118.356 544.101 119.337 544.103 120.146 544.024C120.982 543.943 121.733 543.769 122.449 543.363L121.158 541.083C120.872 541.245 120.516 541.355 119.892 541.416C119.24 541.479 118.406 541.481 117.171 541.481V544.101ZM123.551 537.869C122.915 538.928 122.485 539.642 122.095 540.169C121.722 540.673 121.445 540.921 121.158 541.083L122.449 543.363C123.166 542.958 123.701 542.403 124.201 541.728C124.684 541.075 125.188 540.233 125.798 539.217L123.551 537.869Z" fill="black"/>
<path d="M111.917 526.899C111.193 526.899 110.607 527.485 110.607 528.209C110.607 528.933 111.193 529.519 111.917 529.519V526.899ZM141.084 542.792L142.01 543.719C142.522 543.207 142.522 542.378 142.01 541.866L141.084 542.792ZM139.093 538.949C138.582 538.438 137.752 538.438 137.241 538.949C136.729 539.461 136.729 540.29 137.241 540.802L139.093 538.949ZM137.241 544.783C136.729 545.294 136.729 546.124 137.241 546.635C137.752 547.147 138.582 547.147 139.093 546.635L137.241 544.783ZM132.517 542.712L132.767 541.426H132.767L132.517 542.712ZM130.249 539.202C129.877 538.581 129.072 538.38 128.451 538.752C127.831 539.124 127.63 539.929 128.002 540.55L130.249 539.202ZM130.1 541.344L131.074 540.467L130.1 541.344ZM120.484 528.29L120.734 527.004V527.004L120.484 528.29ZM122.752 531.8C123.124 532.42 123.929 532.621 124.549 532.249C125.17 531.877 125.371 531.072 124.999 530.452L122.752 531.8ZM122.901 529.658L121.927 530.534L122.901 529.658ZM111.917 529.519H118.724V526.899H111.917V529.519ZM134.277 544.103H141.084V541.482H134.277V544.103ZM142.01 541.866L139.093 538.949L137.241 540.802L140.157 543.719L142.01 541.866ZM140.157 541.866L137.241 544.783L139.093 546.635L142.01 543.719L140.157 541.866ZM134.277 541.482C133.326 541.482 133.028 541.476 132.767 541.426L132.266 543.998C132.834 544.108 133.432 544.103 134.277 544.103V541.482ZM128.002 540.55C128.436 541.274 128.739 541.79 129.126 542.22L131.074 540.467C130.896 540.27 130.738 540.017 130.249 539.202L128.002 540.55ZM132.767 541.426C132.113 541.298 131.519 540.962 131.074 540.467L129.126 542.22C129.952 543.138 131.054 543.762 132.266 543.998L132.767 541.426ZM118.724 529.519C119.674 529.519 119.973 529.525 120.234 529.576L120.734 527.004C120.167 526.893 119.568 526.899 118.724 526.899V529.519ZM124.999 530.452C124.564 529.727 124.261 529.211 123.875 528.781L121.927 530.534C122.104 530.731 122.263 530.985 122.752 531.8L124.999 530.452ZM120.234 529.576C120.887 529.703 121.481 530.039 121.927 530.534L123.875 528.781C123.049 527.864 121.946 527.239 120.734 527.004L120.234 529.576Z" fill="black"/>
<path d="M481.06 534.583H479.75H481.06ZM481.06 536.875L480.137 537.805C480.648 538.312 481.472 538.312 481.983 537.805L481.06 536.875ZM484.292 535.513C484.806 535.004 484.809 534.174 484.3 533.661C483.79 533.147 482.96 533.144 482.447 533.653L484.292 535.513ZM479.673 533.653C479.159 533.144 478.33 533.147 477.82 533.661C477.31 534.174 477.314 535.004 477.827 535.513L479.673 533.653ZM501.359 529.311C501.738 529.928 502.545 530.12 503.161 529.741C503.778 529.362 503.97 528.555 503.591 527.939L501.359 529.311ZM492.608 521.815C485.516 521.815 479.75 527.522 479.75 534.583H482.37C482.37 528.988 486.944 524.435 492.608 524.435V521.815ZM479.75 534.583L479.75 536.875L482.37 536.875L482.37 534.583L479.75 534.583ZM481.983 537.805L484.292 535.513L482.447 533.653L480.137 535.945L481.983 537.805ZM481.983 535.945L479.673 533.653L477.827 535.513L480.137 537.805L481.983 535.945ZM503.591 527.939C501.333 524.266 497.258 521.815 492.608 521.815V524.435C496.316 524.435 499.561 526.387 501.359 529.311L503.591 527.939Z" fill="black"/>
<path d="M503.932 534.125L504.853 533.193C504.342 532.689 503.521 532.689 503.011 533.193L503.932 534.125ZM500.692 535.485C500.177 535.993 500.173 536.823 500.681 537.338C501.19 537.852 502.019 537.857 502.534 537.348L500.692 535.485ZM505.329 537.348C505.844 537.857 506.673 537.852 507.182 537.338C507.691 536.823 507.686 535.993 507.171 535.485L505.329 537.348ZM483.55 541.687C483.17 541.071 482.362 540.88 481.746 541.26C481.131 541.64 480.94 542.447 481.32 543.063L483.55 541.687ZM492.339 549.185C499.45 549.185 505.242 543.483 505.242 536.417H502.621C502.621 542.007 498.032 546.565 492.339 546.565V549.185ZM505.242 536.417V534.125H502.621V536.417H505.242ZM503.011 533.193L500.692 535.485L502.534 537.348L504.853 535.057L503.011 533.193ZM503.011 535.057L505.329 537.348L507.171 535.485L504.853 533.193L503.011 535.057ZM481.32 543.063C483.586 546.736 487.676 549.185 492.339 549.185V546.565C488.613 546.565 485.354 544.61 483.55 541.687L481.32 543.063Z" fill="black"/>
<line x1="111.5" y1="465.5" x2="505.786" y2="465.5" stroke="#838383" stroke-width="3" stroke-linecap="round"/>
<line x1="111.5" y1="465.5" x2="207.823" y2="465.5" stroke="#FF83AA" stroke-width="3" stroke-linecap="round"/>
<circle cx="208.5" cy="466.5" r="7.5" fill="#FF83AA"/>
<path d="M113.263 492V484.11H113.161L110.832 485.798V484.592L113.269 482.84H114.405V492H113.263ZM117.643 492.063C117.418 492.063 117.224 491.983 117.059 491.822C116.898 491.657 116.817 491.463 116.817 491.238C116.817 491.01 116.898 490.815 117.059 490.654C117.224 490.493 117.418 490.413 117.643 490.413C117.871 490.413 118.066 490.493 118.227 490.654C118.387 490.815 118.468 491.01 118.468 491.238C118.468 491.463 118.387 491.657 118.227 491.822C118.066 491.983 117.871 492.063 117.643 492.063ZM123.152 492.216C122.475 492.216 121.896 492.021 121.413 491.632C120.935 491.243 120.567 490.69 120.309 489.975C120.05 489.256 119.921 488.405 119.921 487.423V487.411C119.921 486.429 120.05 485.58 120.309 484.865C120.567 484.15 120.935 483.598 121.413 483.208C121.896 482.819 122.475 482.625 123.152 482.625C123.829 482.625 124.409 482.819 124.892 483.208C125.374 483.598 125.744 484.15 126.002 484.865C126.265 485.58 126.396 486.429 126.396 487.411V487.423C126.396 488.405 126.265 489.256 126.002 489.975C125.744 490.69 125.374 491.243 124.892 491.632C124.409 492.021 123.829 492.216 123.152 492.216ZM123.152 491.219C123.592 491.219 123.967 491.065 124.276 490.756C124.589 490.447 124.828 490.009 124.993 489.442C125.162 488.875 125.247 488.202 125.247 487.423V487.411C125.247 486.632 125.162 485.961 124.993 485.398C124.828 484.831 124.589 484.396 124.276 484.091C123.967 483.782 123.592 483.627 123.152 483.627C122.716 483.627 122.342 483.782 122.029 484.091C121.72 484.396 121.483 484.831 121.318 485.398C121.153 485.961 121.07 486.632 121.07 487.411V487.423C121.07 488.202 121.153 488.875 121.318 489.442C121.483 490.009 121.72 490.447 122.029 490.756C122.342 491.065 122.716 491.219 123.152 491.219ZM128.275 492V491.213L131.373 487.861C131.762 487.438 132.067 487.089 132.287 486.814C132.507 486.535 132.661 486.283 132.75 486.059C132.839 485.834 132.883 485.589 132.883 485.322V485.31C132.883 484.988 132.813 484.7 132.674 484.446C132.534 484.192 132.335 483.991 132.077 483.843C131.819 483.695 131.51 483.621 131.15 483.621C130.786 483.621 130.467 483.697 130.192 483.85C129.917 483.998 129.703 484.207 129.551 484.478C129.398 484.745 129.322 485.058 129.322 485.417L129.316 485.43L128.224 485.424L128.211 485.417C128.216 484.876 128.347 484.396 128.605 483.977C128.863 483.553 129.219 483.223 129.671 482.986C130.124 482.745 130.643 482.625 131.227 482.625C131.76 482.625 132.24 482.737 132.667 482.961C133.095 483.181 133.431 483.484 133.677 483.869C133.926 484.254 134.051 484.694 134.051 485.189V485.202C134.051 485.549 133.99 485.883 133.867 486.205C133.749 486.526 133.537 486.884 133.232 487.277C132.928 487.667 132.498 488.147 131.944 488.718L129.576 491.162L129.862 490.635V491.162L129.583 490.972H134.204V492H128.275Z" fill="#151515"/>
<path d="M481.205 492V490.102H476.743V489.061C476.992 488.646 477.246 488.227 477.504 487.804C477.763 487.377 478.023 486.951 478.285 486.528C478.552 486.101 478.818 485.678 479.085 485.259C479.352 484.84 479.616 484.427 479.878 484.021C480.145 483.615 480.407 483.221 480.666 482.84H482.322V489.08H483.624V490.102H482.322V492H481.205ZM477.911 489.086H481.211V483.9H481.135C480.928 484.209 480.716 484.531 480.5 484.865C480.285 485.195 480.065 485.534 479.84 485.881C479.62 486.228 479.4 486.577 479.18 486.928C478.96 487.279 478.742 487.631 478.526 487.982C478.315 488.329 478.11 488.672 477.911 489.01V489.086ZM485.852 492.063C485.627 492.063 485.433 491.983 485.268 491.822C485.107 491.657 485.026 491.463 485.026 491.238C485.026 491.01 485.107 490.815 485.268 490.654C485.433 490.493 485.627 490.413 485.852 490.413C486.08 490.413 486.275 490.493 486.436 490.654C486.596 490.815 486.677 491.01 486.677 491.238C486.677 491.463 486.596 491.657 486.436 491.822C486.275 491.983 486.08 492.063 485.852 492.063ZM491.361 492.216C490.684 492.216 490.104 492.021 489.622 491.632C489.144 491.243 488.776 490.69 488.518 489.975C488.259 489.256 488.13 488.405 488.13 487.423V487.411C488.13 486.429 488.259 485.58 488.518 484.865C488.776 484.15 489.144 483.598 489.622 483.208C490.104 482.819 490.684 482.625 491.361 482.625C492.038 482.625 492.618 482.819 493.101 483.208C493.583 483.598 493.953 484.15 494.211 484.865C494.474 485.58 494.605 486.429 494.605 487.411V487.423C494.605 488.405 494.474 489.256 494.211 489.975C493.953 490.69 493.583 491.243 493.101 491.632C492.618 492.021 492.038 492.216 491.361 492.216ZM491.361 491.219C491.801 491.219 492.176 491.065 492.485 490.756C492.798 490.447 493.037 490.009 493.202 489.442C493.371 488.875 493.456 488.202 493.456 487.423V487.411C493.456 486.632 493.371 485.961 493.202 485.398C493.037 484.831 492.798 484.396 492.485 484.091C492.176 483.782 491.801 483.627 491.361 483.627C490.925 483.627 490.551 483.782 490.238 484.091C489.929 484.396 489.692 484.831 489.527 485.398C489.362 485.961 489.279 486.632 489.279 487.411V487.423C489.279 488.202 489.362 488.875 489.527 489.442C489.692 490.009 489.929 490.447 490.238 490.756C490.551 491.065 490.925 491.219 491.361 491.219ZM499.721 492.216C499.302 492.216 498.888 492.135 498.477 491.975C498.071 491.814 497.701 491.554 497.366 491.194C497.036 490.834 496.772 490.36 496.573 489.772C496.374 489.18 496.274 488.452 496.274 487.588V487.576C496.274 486.535 496.414 485.646 496.693 484.91C496.973 484.169 497.375 483.604 497.899 483.215C498.424 482.821 499.057 482.625 499.797 482.625C500.309 482.625 500.771 482.72 501.181 482.91C501.596 483.096 501.941 483.359 502.216 483.697C502.495 484.032 502.686 484.425 502.787 484.878L502.806 484.96H501.657L501.632 484.891C501.539 484.632 501.405 484.412 501.232 484.23C501.063 484.044 500.855 483.9 500.61 483.799C500.369 483.697 500.094 483.646 499.785 483.646C499.23 483.646 498.78 483.809 498.433 484.135C498.086 484.457 497.827 484.886 497.658 485.424C497.493 485.957 497.398 486.543 497.373 487.182C497.368 487.237 497.366 487.294 497.366 487.354C497.366 487.409 497.366 487.466 497.366 487.525L497.639 489.048C497.639 489.45 497.73 489.814 497.912 490.14C498.098 490.466 498.348 490.726 498.661 490.921C498.974 491.111 499.323 491.207 499.708 491.207C500.094 491.207 500.443 491.113 500.756 490.927C501.069 490.737 501.317 490.481 501.499 490.159C501.685 489.838 501.778 489.48 501.778 489.086V489.074C501.778 488.667 501.689 488.308 501.511 487.995C501.338 487.677 501.097 487.43 500.788 487.252C500.479 487.07 500.125 486.979 499.728 486.979C499.334 486.979 498.979 487.068 498.661 487.246C498.348 487.423 498.098 487.669 497.912 487.982C497.73 488.291 497.639 488.644 497.639 489.042V489.048H497.265V487.398H497.487C497.601 487.148 497.77 486.916 497.995 486.7C498.219 486.484 498.494 486.31 498.82 486.179C499.146 486.048 499.514 485.982 499.924 485.982C500.5 485.982 501.014 486.116 501.467 486.382C501.92 486.649 502.275 487.013 502.533 487.474C502.796 487.935 502.927 488.46 502.927 489.048V489.061C502.927 489.67 502.787 490.212 502.508 490.686C502.233 491.16 501.854 491.535 501.372 491.81C500.889 492.08 500.339 492.216 499.721 492.216Z" fill="#626161"/>
<defs>
<filter id="filter0_d_852_422" x="0" y="0" width="619" height="666" filterUnits="userSpaceOnUse" color-interpolation-filters="sRGB">
<feFlood flood-opacity="0" result="BackgroundImageFix"/>
<feColorMatrix in="SourceAlpha" type="matrix" values="0 0 0 0 0 0 0 0 0 0 0 0 0 0 0 0 0 0 127 0" result="hardAlpha"/>
<feOffset dy="4"/>
<feGaussianBlur stdDeviation="7.5"/>
<feComposite in2="hardAlpha" operator="out"/>
<feColorMatrix type="matrix" values="0 0 0 0 0 0 0 0 0 0 0 0 0 0 0 0 0 0 0.25 0"/>
<feBlend mode="normal" in2="BackgroundImageFix" result="effect1_dropShadow_852_422"/>
<feBlend mode="normal" in="SourceGraphic" in2="effect1_dropShadow_852_422" result="shape"/>
</filter>
<filter id="filter1_f_852_422" x="-226.448" y="-618.197" width="2103.78" height="2337.98" filterUnits="userSpaceOnUse" color-interpolation-filters="sRGB">
<feFlood flood-opacity="0" result="BackgroundImageFix"/>
<feBlend mode="normal" in="SourceGraphic" in2="BackgroundImageFix" result="shape"/>
<feGaussianBlur stdDeviation="310" result="effect1_foregroundBlur_852_422"/>
</filter>
<filter id="filter2_f_852_422" x="-280.114" y="-430.887" width="1179.24" height="1158.02" filterUnits="userSpaceOnUse" color-interpolation-filters="sRGB">
<feFlood flood-opacity="0" result="BackgroundImageFix"/>
<feBlend mode="normal" in="SourceGraphic" in2="BackgroundImageFix" result="shape"/>
<feGaussianBlur stdDeviation="210" result="effect1_foregroundBlur_852_422"/>
</filter>
<filter id="filter3_f_852_422" x="-236.914" y="120.443" width="1668.53" height="1640.03" filterUnits="userSpaceOnUse" color-interpolation-filters="sRGB">
<feFlood flood-opacity="0" result="BackgroundImageFix"/>
<feBlend mode="normal" in="SourceGraphic" in2="BackgroundImageFix" result="shape"/>
<feGaussianBlur stdDeviation="160" result="effect1_foregroundBlur_852_422"/>
</filter>
<linearGradient id="paint0_linear_852_422" x1="237" y1="245" x2="237" y2="412" gradientUnits="userSpaceOnUse">
<stop stop-color="#FFEC92"/>
<stop offset="1" stop-color="#FF83AA"/>
</linearGradient>
<linearGradient id="paint1_linear_852_422" x1="398" y1="245" x2="398" y2="412" gradientUnits="userSpaceOnUse">
<stop stop-color="#FFEC92"/>
<stop offset="1" stop-color="#FF83AA"/>
</linearGradient>
<linearGradient id="paint2_linear_852_422" x1="237" y1="220" x2="237" y2="258" gradientUnits="userSpaceOnUse">
<stop stop-color="#FF6E90"/>
<stop offset="1" stop-color="#FFDB92"/>
</linearGradient>
<linearGradient id="paint3_linear_852_422" x1="398" y1="220" x2="398" y2="258" gradientUnits="userSpaceOnUse">
<stop stop-color="#FF6E90"/>
<stop offset="1" stop-color="#FFDB92"/>
</linearGradient>
<clipPath id="clip0_852_422">
<rect x="15" y="11" width="589" height="636" rx="50" fill="white"/>
</clipPath>
<clipPath id="clip1_852_422">
<rect width="42" height="26" fill="white" transform="translate(195 522)"/>
</clipPath>
</defs>
</svg>
