<svg width="30" height="27" viewBox="0 0 30 27" fill="none" xmlns="http://www.w3.org/2000/svg">
<path d="M16.0003 13.8104L27.3337 9.73039V16.5139C26.6601 16.1258 25.8594 15.9008 25.0003 15.9008C22.6071 15.9008 20.667 17.6469 20.667 19.8008C20.667 21.9547 22.6071 23.7008 25.0003 23.7008C27.3936 23.7008 29.3337 21.9547 29.3337 19.8008V19.8008L29.3337 8.33628C29.3337 6.96488 29.3337 5.81474 29.2264 4.89835C29.2113 4.76884 29.1933 4.64009 29.1736 4.51995C29.0703 3.89389 28.8878 3.30986 28.5355 2.82216C28.3593 2.57831 28.1408 2.35855 27.8684 2.16965C27.8173 2.13423 27.7644 2.0999 27.7095 2.0667L27.6985 2.06007C26.7555 1.49526 25.6954 1.53565 24.6034 1.7861C23.5473 2.02832 22.238 2.52156 20.6324 3.1264L17.8403 4.17816C17.0877 4.46163 16.4501 4.70179 15.9496 4.95054C15.4171 5.2152 14.9585 5.52735 14.6145 5.99252C14.2705 6.45768 14.1277 6.95898 14.062 7.50323C14.0003 8.01476 14.0003 8.63683 14.0003 9.37107V18.9139C13.3268 18.5258 12.5261 18.3008 11.667 18.3008C9.27376 18.3008 7.33366 20.0469 7.33366 22.2008C7.33366 24.3547 9.27376 26.1008 11.667 26.1008C14.0602 26.1008 16.0003 24.3547 16.0003 22.2008V22.2008L16.0003 13.8104Z" fill="white"/>
<path d="M9.33366 1.20078C9.33366 0.703725 8.88594 0.300781 8.33366 0.300781C7.78137 0.300781 7.33366 0.703725 7.33366 1.20078V8.11387C6.66012 7.72578 5.85942 7.50078 5.00033 7.50078C2.60709 7.50078 0.666992 9.24687 0.666992 11.4008C0.666992 13.5547 2.60709 15.3008 5.00033 15.3008C7.39356 15.3008 9.33366 13.5547 9.33366 11.4008V4.80618C10.265 5.41174 11.3731 5.70078 12.3337 5.70078C12.8859 5.70078 13.3337 5.29784 13.3337 4.80078C13.3337 4.30372 12.8859 3.90078 12.3337 3.90078C11.7279 3.90078 10.9554 3.68945 10.3491 3.23882C9.77152 2.80951 9.33366 2.1582 9.33366 1.20078Z" fill="white"/>
</svg>
