<svg width="33" height="25" viewBox="0 0 33 25" fill="none" xmlns="http://www.w3.org/2000/svg">
<path d="M1.91699 18.4808C1.1934 18.4808 0.606807 19.0674 0.606807 19.791C0.606807 20.5146 1.1934 21.1012 1.91699 21.1012V18.4808ZM14.6742 15.5429L15.7977 16.2169L15.7977 16.2169L14.6742 15.5429ZM18.3264 9.45585L19.4499 10.1299L19.4499 10.1299L18.3264 9.45585ZM31.0837 5.20768L32.0101 6.13412C32.5218 5.62246 32.5218 4.7929 32.0101 4.28124L31.0837 5.20768ZM27.2405 7.19791C26.7289 7.70957 26.7289 8.53913 27.2405 9.05079C27.7522 9.56245 28.5818 9.56245 29.0934 9.05079L27.2405 7.19791ZM29.0934 1.36457C28.5818 0.852916 27.7522 0.852916 27.2405 1.36457C26.7289 1.87623 26.7289 2.7058 27.2405 3.21746L29.0934 1.36457ZM21.1968 5.77556L20.5513 4.63543L20.5513 4.63544L21.1968 5.77556ZM11.8038 19.2231L12.4493 20.3633L12.4493 20.3633L11.8038 19.2231ZM1.91699 3.8975C1.1934 3.8975 0.606807 4.48409 0.606807 5.20768C0.606807 5.93128 1.1934 6.51787 1.91699 6.51787V3.8975ZM31.0837 19.791L32.0101 20.7175C32.5218 20.2058 32.5218 19.3762 32.0101 18.8646L31.0837 19.791ZM29.0934 15.9479C28.5818 15.4362 27.7522 15.4362 27.2405 15.9479C26.7289 16.4596 26.7289 17.2891 27.2405 17.8008L29.0934 15.9479ZM27.2405 21.7812C26.7289 22.2929 26.7289 23.1225 27.2405 23.6341C27.7522 24.1458 28.5818 24.1458 29.0934 23.6341L27.2405 21.7812ZM22.5165 19.7104L22.7669 18.4244L22.7669 18.4244L22.5165 19.7104ZM20.2488 16.2003C19.8765 15.5798 19.0717 15.3786 18.4512 15.7509C17.8308 16.1232 17.6296 16.928 18.0018 17.5484L20.2488 16.2003ZM20.1 18.3422L21.074 17.4659L21.074 17.4659L20.1 18.3422ZM10.4841 5.28828L10.7344 4.00222L10.7344 4.00222L10.4841 5.28828ZM12.7518 8.79843C13.1241 9.41891 13.9289 9.62011 14.5494 9.24782C15.1699 8.87554 15.3711 8.07074 14.9988 7.45027L12.7518 8.79843ZM12.9006 6.65647L13.8746 5.78016L13.8746 5.78016L12.9006 6.65647ZM1.91699 21.1012H7.17116V18.4808H1.91699V21.1012ZM15.7977 16.2169L19.4499 10.1299L17.203 8.78176L13.5507 14.8688L15.7977 16.2169ZM25.8295 6.51787H31.0837V3.8975H25.8295V6.51787ZM30.1572 4.28124L27.2405 7.19791L29.0934 9.05079L32.0101 6.13412L30.1572 4.28124ZM32.0101 4.28124L29.0934 1.36457L27.2405 3.21746L30.1572 6.13412L32.0101 4.28124ZM19.4499 10.1299C20.0853 9.07095 20.5153 8.357 20.9054 7.83016C21.2785 7.32614 21.5559 7.07789 21.8424 6.91568L20.5513 4.63544C19.8348 5.0411 19.2995 5.59552 18.7994 6.27094C18.3162 6.92355 17.8125 7.7658 17.203 8.78176L19.4499 10.1299ZM25.8295 3.8975C24.6447 3.8975 23.6633 3.89607 22.8551 3.97463C22.0187 4.05593 21.2678 4.22977 20.5513 4.63543L21.8424 6.91568C22.1289 6.75347 22.4844 6.64338 23.1086 6.58271C23.7611 6.51929 24.5945 6.51787 25.8295 6.51787V3.8975ZM7.17116 21.1012C8.35596 21.1012 9.33733 21.1026 10.1455 21.0241C10.982 20.9428 11.7328 20.7689 12.4493 20.3633L11.1583 18.083C10.8718 18.2452 10.5162 18.3553 9.89203 18.416C9.23959 18.4794 8.40613 18.4808 7.17116 18.4808V21.1012ZM13.5507 14.8688C12.9154 15.9277 12.4853 16.6417 12.0953 17.1685C11.7221 17.6726 11.4448 17.9208 11.1583 18.083L12.4493 20.3633C13.1658 19.9576 13.7012 19.4032 14.2013 18.7278C14.6844 18.0751 15.1881 17.2329 15.7977 16.2169L13.5507 14.8688ZM1.91699 6.51787H8.72394V3.8975H1.91699V6.51787ZM24.2767 21.1012H31.0837V18.4808H24.2767V21.1012ZM32.0101 18.8646L29.0934 15.9479L27.2405 17.8008L30.1572 20.7175L32.0101 18.8646ZM30.1572 18.8646L27.2405 21.7812L29.0934 23.6341L32.0101 20.7175L30.1572 18.8646ZM24.2767 18.4808C23.3263 18.4808 23.0275 18.4751 22.7669 18.4244L22.2662 20.9965C22.8337 21.1069 23.4323 21.1012 24.2767 21.1012V18.4808ZM18.0018 17.5484C18.4363 18.2725 18.7394 18.7888 19.126 19.2185L21.074 17.4659C20.8964 17.2685 20.7378 17.0152 20.2488 16.2003L18.0018 17.5484ZM22.7669 18.4244C22.1135 18.2972 21.5192 17.9608 21.074 17.4659L19.126 19.2185C19.9519 20.1365 21.0542 20.7606 22.2662 20.9965L22.7669 18.4244ZM8.72394 6.51787C9.67433 6.51787 9.97314 6.52359 10.2338 6.57433L10.7344 4.00222C10.167 3.89178 9.56838 3.8975 8.72394 3.8975V6.51787ZM14.9988 7.45027C14.5643 6.72616 14.2613 6.20991 13.8746 5.78016L11.9266 7.53279C12.1042 7.7302 12.2629 7.98348 12.7518 8.79843L14.9988 7.45027ZM10.2338 6.57433C10.8872 6.7015 11.4814 7.03794 11.9266 7.53279L13.8746 5.78016C13.0487 4.86223 11.9465 4.23814 10.7344 4.00222L10.2338 6.57433Z" fill="black"/>
</svg>
